<svg xmlns="http://www.w3.org/2000/svg" width="60" height="40" viewBox="0 0 60 40"><g fill="none" fill-rule="evenodd"><path d="M0 0h20v20H0z"/><path fill="#A4A4A9" fill-rule="nonzero" d="M18.336 8.008h-.758V5.625c0-.867-.759-1.625-1.625-1.625-.867 0-1.625.758-1.625 1.625v.65h.975v-.65c0-.325.325-.65.65-.65s.65.325.65.65v2.383H9.019c-1.733 0-3.141-.216-4.766-.65l-3.25-.866c-.434-.217-.867.108-.975.541-.109.434.108.867.541.975l.325.109v3.466a3.144 3.144 0 0 0 3.142 3.142v.758a.74.74 0 0 0 .758.759.74.74 0 0 0 .759-.759v-.65h7.583v.759a.74.74 0 0 0 .758.758.74.74 0 0 0 .759-.758v-.759a3.144 3.144 0 0 0 3.141-3.141V9.633h.109a.74.74 0 0 0 .758-.758c0-.433.108-.867-.325-.867z"/><path d="M20 0h20v20H20z"/><path fill="#FFDF00" fill-rule="nonzero" d="M38.336 8.008h-.758V5.625c0-.867-.759-1.625-1.625-1.625-.867 0-1.625.758-1.625 1.625v.65h.975v-.65c0-.325.325-.65.65-.65s.65.325.65.65v2.383h-7.584c-1.733 0-3.141-.216-4.766-.65l-3.25-.866c-.434-.217-.867.108-.975.541-.109.434.108.867.541.975l.325.109v3.466a3.144 3.144 0 0 0 3.142 3.142v.758a.74.74 0 0 0 .758.759.74.74 0 0 0 .759-.759v-.65h7.583v.759a.74.74 0 0 0 .758.758.74.74 0 0 0 .759-.758v-.759a3.144 3.144 0 0 0 3.141-3.141V9.633h.109a.74.74 0 0 0 .758-.758c0-.433.108-.867-.325-.867z"/><path d="M40 0h20v20H40z"/><path fill="#CD171E" fill-rule="nonzero" d="M58.336 8.008h-.758V5.625c0-.867-.759-1.625-1.625-1.625-.867 0-1.625.758-1.625 1.625v.65h.975v-.65c0-.325.325-.65.65-.65s.65.325.65.65v2.383h-7.584c-1.733 0-3.141-.216-4.766-.65l-3.25-.866c-.434-.217-.867.108-.975.541-.109.434.108.867.541.975l.325.109v3.466a3.144 3.144 0 0 0 3.142 3.142v.758a.74.74 0 0 0 .758.759.74.74 0 0 0 .759-.759v-.65h7.583v.759a.74.74 0 0 0 .758.758.74.74 0 0 0 .759-.758v-.759a3.144 3.144 0 0 0 3.141-3.141V9.633h.109a.74.74 0 0 0 .758-.758c0-.433.108-.867-.325-.867z"/><path d="M20 20h20v20H20z"/><path fill="#6C9173" fill-rule="nonzero" d="M38.336 28.008h-.758v-2.383c0-.867-.759-1.625-1.625-1.625-.867 0-1.625.758-1.625 1.625v.65h.975v-.65c0-.325.325-.65.65-.65s.65.325.65.65v2.383h-7.584c-1.733 0-3.141-.216-4.766-.65l-3.25-.866c-.434-.217-.867.108-.975.541-.109.434.108.867.541.975l.325.109v3.466a3.144 3.144 0 0 0 3.142 3.142v.758a.74.74 0 0 0 .758.759.74.74 0 0 0 .759-.759v-.65h7.583v.759a.74.74 0 0 0 .758.758.74.74 0 0 0 .759-.758v-.759a3.144 3.144 0 0 0 3.141-3.141v-2.059h.109a.74.74 0 0 0 .758-.758c0-.433.108-.867-.325-.867z"/><path d="M0 20h20v20H0z"/><path fill="#7987B5" fill-rule="nonzero" d="M18.336 28.008h-.758v-2.383c0-.867-.759-1.625-1.625-1.625-.867 0-1.625.758-1.625 1.625v.65h.975v-.65c0-.325.325-.65.65-.65s.65.325.65.65v2.383H9.019c-1.733 0-3.141-.216-4.766-.65l-3.25-.866c-.434-.217-.867.108-.975.541-.109.434.108.867.541.975l.325.109v3.466a3.144 3.144 0 0 0 3.142 3.142v.758a.74.74 0 0 0 .758.759.74.74 0 0 0 .759-.759v-.65h7.583v.759a.74.74 0 0 0 .758.758.74.74 0 0 0 .759-.758v-.759a3.144 3.144 0 0 0 3.141-3.141v-2.059h.109a.74.74 0 0 0 .758-.758c0-.433.108-.867-.325-.867z"/></g></svg>