<svg xmlns="http://www.w3.org/2000/svg" width="60" height="40" viewBox="0 0 60 40"><g fill="none" fill-rule="evenodd"><path d="M0 0h20v20H0z"/><path fill="#A4A4A9" fill-rule="nonzero" d="M16.167 10.283h-.325V5.517c.325-.109.541-.434.541-.65 0-.434-.325-.867-.866-.867-.434 0-.867.325-.867.867 0 .325.217.541.433.758v.433H3.167v-.541c.216-.109.433-.434.433-.65C3.6 4.325 3.167 4 2.733 4c-.433 0-.758.325-.758.867 0 .216.108.541.433.65v4.658h-.325c-.65 0-1.083.542-1.083 1.083v5.092c0 .108.108.325.325.325h.217c.216 0 .325-.108.433-.325l.433-1.083H15.95l.433 1.083c.109.217.217.325.434.325h.216c.109 0 .325-.108.325-.325v-4.983c-.108-.65-.541-1.084-1.191-1.084zM10.1 7.792h4.225c.325 0 .542.216.542.541v1.842H9.558V8.333c0-.325.217-.541.542-.541zm-6.608.541c0-.325.216-.541.541-.541h4.225c.325 0 .542.216.542.541v1.842H3.492V8.333z"/><path d="M20 0h20v20H20z"/><path fill="#FFDF00" fill-rule="nonzero" d="M36.167 10.283h-.325V5.517c.325-.109.541-.434.541-.65 0-.434-.325-.867-.866-.867-.434 0-.867.325-.867.867 0 .325.217.541.433.758v.433H23.167v-.541c.216-.109.433-.434.433-.65 0-.542-.433-.867-.867-.867-.433 0-.758.325-.758.867 0 .216.108.541.433.65v4.658h-.325c-.65 0-1.083.542-1.083 1.083v5.092c0 .108.108.325.325.325h.217c.216 0 .325-.108.433-.325l.433-1.083H35.95l.433 1.083c.109.217.217.325.434.325h.216c.109 0 .325-.108.325-.325v-4.983c-.108-.65-.541-1.084-1.191-1.084zM30.1 7.792h4.225c.325 0 .542.216.542.541v1.842h-5.309V8.333c0-.325.217-.541.542-.541zm-6.608.541c0-.325.216-.541.541-.541h4.225c.325 0 .542.216.542.541v1.842h-5.308V8.333z"/><path d="M40 0h20v20H40z"/><path fill="#CD171E" fill-rule="nonzero" d="M56.167 10.283h-.325V5.517c.325-.109.541-.434.541-.65 0-.434-.325-.867-.866-.867-.434 0-.867.325-.867.867 0 .325.217.541.433.758v.433H43.167v-.541c.216-.109.433-.434.433-.65 0-.542-.433-.867-.867-.867-.433 0-.758.325-.758.867 0 .216.108.541.433.65v4.658h-.325c-.65 0-1.083.542-1.083 1.083v5.092c0 .108.108.325.325.325h.217c.216 0 .325-.108.433-.325l.433-1.083H55.95l.433 1.083c.109.217.217.325.434.325h.216c.109 0 .325-.108.325-.325v-4.983c-.108-.65-.541-1.084-1.191-1.084zM50.1 7.792h4.225c.325 0 .542.216.542.541v1.842h-5.309V8.333c0-.325.217-.541.542-.541zm-6.608.541c0-.325.216-.541.541-.541h4.225c.325 0 .542.216.542.541v1.842h-5.308V8.333z"/><path d="M20 20h20v20H20z"/><path fill="#6C9173" fill-rule="nonzero" d="M36.167 30.283h-.325v-4.766c.325-.109.541-.434.541-.65 0-.434-.325-.867-.866-.867-.434 0-.867.325-.867.867 0 .325.217.541.433.758v.433H23.167v-.541c.216-.109.433-.434.433-.65 0-.542-.433-.867-.867-.867-.433 0-.758.325-.758.867 0 .216.108.541.433.65v4.658h-.325c-.65 0-1.083.542-1.083 1.083v5.092c0 .108.108.325.325.325h.217c.216 0 .325-.108.433-.325l.433-1.083H35.95l.433 1.083c.109.217.217.325.434.325h.216c.109 0 .325-.108.325-.325v-4.983c-.108-.65-.541-1.084-1.191-1.084zM30.1 27.792h4.225c.325 0 .542.216.542.541v1.842h-5.309v-1.842c0-.325.217-.541.542-.541zm-6.608.541c0-.325.216-.541.541-.541h4.225c.325 0 .542.216.542.541v1.842h-5.308v-1.842z"/><path d="M0 20h20v20H0z"/><path fill="#7987B5" fill-rule="nonzero" d="M16.167 30.283h-.325v-4.766c.325-.109.541-.434.541-.65 0-.434-.325-.867-.866-.867-.434 0-.867.325-.867.867 0 .325.217.541.433.758v.433H3.167v-.541c.216-.109.433-.434.433-.65 0-.542-.433-.867-.867-.867-.433 0-.758.325-.758.867 0 .216.108.541.433.65v4.658h-.325c-.65 0-1.083.542-1.083 1.083v5.092c0 .108.108.325.325.325h.217c.216 0 .325-.108.433-.325l.433-1.083H15.95l.433 1.083c.109.217.217.325.434.325h.216c.109 0 .325-.108.325-.325v-4.983c-.108-.65-.541-1.084-1.191-1.084zM10.1 27.792h4.225c.325 0 .542.216.542.541v1.842H9.558v-1.842c0-.325.217-.541.542-.541zm-6.608.541c0-.325.216-.541.541-.541h4.225c.325 0 .542.216.542.541v1.842H3.492v-1.842z"/></g></svg>