<svg xmlns="http://www.w3.org/2000/svg" width="60" height="40" viewBox="0 0 60 40"><g fill="none" fill-rule="evenodd"><path d="M0 0h20v20H0z"/><g fill="#A4A4A9" fill-rule="nonzero"><path d="M9.2 6.3c0-.2-.1-.3-.3-.3H4.2c-.1 0-.3.1-.3.3v4.8h5.3V6.3zm1.1 0v4.8h5.3V6.3c0-.2-.1-.3-.3-.3h-4.7c-.2 0-.3.1-.3.3z"/><path d="M18.1 8.8h-1.6v3.3H3V8.8H1.4c-.2 0-.4.2-.4.4V14c0 .3.2.5.5.5h1.3l-.2 1.2c0 .1 0 .1.1.1h1c.1 0 .1 0 .2-.1l1-1.2h9.8l1 1.2c0 .1.1.1.2.1h1c.1 0 .1-.1.1-.1l-.3-1.2H18c.3 0 .5-.2.5-.5V9.2c0-.2-.2-.4-.4-.4z"/></g><path d="M20 0h20v20H20z"/><g fill="#FFDF00" fill-rule="nonzero"><path d="M29.2 6.3c0-.2-.1-.3-.3-.3h-4.7c-.1 0-.3.1-.3.3v4.8h5.3V6.3zm1.1 0v4.8h5.3V6.3c0-.2-.1-.3-.3-.3h-4.7c-.2 0-.3.1-.3.3z"/><path d="M38.1 8.8h-1.6v3.3H23V8.8h-1.6c-.2 0-.4.2-.4.4V14c0 .3.2.5.5.5h1.3l-.2 1.2c0 .1 0 .1.1.1h1c.1 0 .1 0 .2-.1l1-1.2h9.8l1 1.2c0 .1.1.1.2.1h1c.1 0 .1-.1.1-.1l-.3-1.2H38c.3 0 .5-.2.5-.5V9.2c0-.2-.2-.4-.4-.4z"/></g><path d="M40 0h20v20H40z"/><g fill="#CD171E" fill-rule="nonzero"><path d="M49.2 6.3c0-.2-.1-.3-.3-.3h-4.7c-.1 0-.3.1-.3.3v4.8h5.3V6.3zm1.1 0v4.8h5.3V6.3c0-.2-.1-.3-.3-.3h-4.7c-.2 0-.3.1-.3.3z"/><path d="M58.1 8.8h-1.6v3.3H43V8.8h-1.6c-.2 0-.4.2-.4.4V14c0 .3.2.5.5.5h1.3l-.2 1.2c0 .1 0 .1.1.1h1c.1 0 .1 0 .2-.1l1-1.2h9.8l1 1.2c0 .1.1.1.2.1h1c.1 0 .1-.1.1-.1l-.3-1.2H58c.3 0 .5-.2.5-.5V9.2c0-.2-.2-.4-.4-.4z"/></g><path d="M20 20h20v20H20z"/><g fill="#6C9173" fill-rule="nonzero"><path d="M29.2 26.3c0-.2-.1-.3-.3-.3h-4.7c-.1 0-.3.1-.3.3v4.8h5.3v-4.8zm1.1 0v4.8h5.3v-4.8c0-.2-.1-.3-.3-.3h-4.7c-.2 0-.3.1-.3.3z"/><path d="M38.1 28.8h-1.6v3.3H23v-3.3h-1.6c-.2 0-.4.2-.4.4V34c0 .3.2.5.5.5h1.3l-.2 1.2c0 .1 0 .1.1.1h1c.1 0 .1 0 .2-.1l1-1.2h9.8l1 1.2c0 .1.1.1.2.1h1c.1 0 .1-.1.1-.1l-.3-1.2H38c.3 0 .5-.2.5-.5v-4.8c0-.2-.2-.4-.4-.4z"/></g><path d="M0 20h20v20H0z"/><g fill="#7987B5" fill-rule="nonzero"><path d="M9.2 26.3c0-.2-.1-.3-.3-.3H4.2c-.1 0-.3.1-.3.3v4.8h5.3v-4.8zm1.1 0v4.8h5.3v-4.8c0-.2-.1-.3-.3-.3h-4.7c-.2 0-.3.1-.3.3z"/><path d="M18.1 28.8h-1.6v3.3H3v-3.3H1.4c-.2 0-.4.2-.4.4V34c0 .3.2.5.5.5h1.3l-.2 1.2c0 .1 0 .1.1.1h1c.1 0 .1 0 .2-.1l1-1.2h9.8l1 1.2c0 .1.1.1.2.1h1c.1 0 .1-.1.1-.1l-.3-1.2H18c.3 0 .5-.2.5-.5v-4.8c0-.2-.2-.4-.4-.4z"/></g></g></svg>