<svg xmlns="http://www.w3.org/2000/svg" width="60" height="40" viewBox="0 0 60 40"><g fill="none" fill-rule="evenodd"><path d="M0 0h20v20H0z"/><path fill="#9A9896" fill-rule="nonzero" d="M10.35 3.091c-.121-.121-.243-.121-.364 0L7.07 6.005V4.913a.261.261 0 0 0-.242-.243H4.4a.261.261 0 0 0-.243.242v3.886L1 12.198a.26.26 0 0 0 .243.243h2.064v4.857c0 .122.122.243.243.243h2.914a.261.261 0 0 0 .243-.243v-4.857h2.429v4.857a.26.26 0 0 0 .243.243h7.285a.261.261 0 0 0 .243-.243v-4.857h2.064a.261.261 0 0 0 .243-.243L10.35 3.091zm.85 12.264v-2.914h2.429v2.914H11.2z"/><path d="M20 0h20v20H20z"/><path fill="#FFDF00" fill-rule="nonzero" d="M30.35 3.091c-.121-.121-.243-.121-.364 0L27.07 6.005V4.913a.261.261 0 0 0-.242-.243H24.4a.261.261 0 0 0-.243.242v3.886L21 12.198a.26.26 0 0 0 .243.243h2.064v4.857c0 .122.122.243.243.243h2.914a.261.261 0 0 0 .243-.243v-4.857h2.429v4.857a.26.26 0 0 0 .243.243h7.285a.261.261 0 0 0 .243-.243v-4.857h2.064a.261.261 0 0 0 .243-.243L30.35 3.091zm.85 12.264v-2.914h2.429v2.914H31.2z"/><path d="M40 0h20v20H40z"/><path fill="#CD171E" fill-rule="nonzero" d="M50.042 3.088c-.117-.117-.235-.117-.352 0l-2.818 2.818V4.85a.253.253 0 0 0-.235-.235h-2.349a.253.253 0 0 0-.235.235v3.757L41 11.895c0 .118.117.235.235.235h1.996v4.698c0 .117.118.235.235.235h2.818a.253.253 0 0 0 .235-.235V12.13h2.349v4.698c0 .117.117.235.235.235h7.046a.253.253 0 0 0 .235-.235V12.13h1.996a.253.253 0 0 0 .235-.235l-8.573-8.807zm.822 11.86V12.13h2.349v2.819h-2.349z"/><path d="M20 20h20v20H20z"/><path fill="#6C9173" fill-rule="nonzero" d="M30.35 23.091c-.121-.121-.243-.121-.364 0l-2.915 2.914v-1.092a.261.261 0 0 0-.242-.243H24.4a.261.261 0 0 0-.243.242v3.886L21 32.198a.26.26 0 0 0 .243.243h2.064v4.857c0 .122.122.243.243.243h2.914a.261.261 0 0 0 .243-.243v-4.857h2.429v4.857a.26.26 0 0 0 .243.243h7.285a.261.261 0 0 0 .243-.243v-4.857h2.064a.261.261 0 0 0 .243-.243l-8.864-9.107zm.85 12.264v-2.914h2.429v2.914H31.2z"/><path d="M0 20h20v20H0z"/><path fill="#7987B5" fill-rule="nonzero" d="M10.35 23.091c-.121-.121-.243-.121-.364 0L7.07 26.005v-1.092a.261.261 0 0 0-.242-.243H4.4a.261.261 0 0 0-.243.242v3.886L1 32.198a.26.26 0 0 0 .243.243h2.064v4.857c0 .122.122.243.243.243h2.914a.261.261 0 0 0 .243-.243v-4.857h2.429v4.857a.26.26 0 0 0 .243.243h7.285a.261.261 0 0 0 .243-.243v-4.857h2.064a.261.261 0 0 0 .243-.243l-8.864-9.107zm.85 12.264v-2.914h2.429v2.914H11.2z"/></g></svg>